{
  "accessors": [
    {
      "bufferView": 2,
      "componentType": 5126,
      "count": 1987,
      "max": [
        1.0,
        2.8469011783599854,
        1.0
      ],
      "min": [
        -1.0,
        -1.0,
        -1.0
      ],
      "type": "VEC3"
    },
    {
      "bufferView": 2,
      "byteOffset": 23844,
      "componentType": 5126,
      "count": 1987,
      "max": [
        1.0,
        1.0,
        1.0
      ],
      "min": [
        -1.0,
        -1.0,
        -1.0
      ],
      "type": "VEC3"
    },
    {
      "bufferView": 1,
      "componentType": 5126,
      "count": 1987,
      "max": [
        1.0,
        1.0
      ],
      "min": [
        0.0,
        0.01000000536441803
      ],
      "type": "VEC2"
    },
    {
      "bufferView": 0,
      "componentType": 5125,
      "count": 10170,
      "type": "SCALAR"
    },
    {
      "bufferView": 2,
      "byteOffset": 47688,
      "componentType": 5126,
      "count": 6537,
      "max": [
        1.0000001192092896,
        3.752455234527588,
        1.0000001192092896
      ],
      "min": [
        -1.0000001192092896,
        -1.0000001192092896,
        -1.0000001192092896
      ],
      "type": "VEC3"
    },
    {
      "bufferView": 2,
      "byteOffset": 126132,
      "componentType": 5126,
      "count": 6537,
      "max": [
        1.0,
        1.0,
        1.0
      ],
      "min": [
        -1.0,
        -1.0,
        -1.0
      ],
      "type": "VEC3"
    },
    {
      "bufferView": 1,
      "byteOffset": 15896,
      "componentType": 5126,
      "count": 6537,
      "max": [
        1.0000001192092896,
        1.0000001192092896
      ],
      "min": [
        0.0,
        0.010106472298502922
      ],
      "type": "VEC2"
    },
    {
      "bufferView": 0,
      "byteOffset": 40680,
      "componentType": 5125,
      "count": 33078,
      "type": "SCALAR"
    },
    {
      "bufferView": 2,
      "byteOffset": 204576,
      "componentType": 5126,
      "count": 1380,
      "max": [
        1.0,
        2.2928435802459717,
        1.0
      ],
      "min": [
        -1.0,
        -1.0,
        -1.0
      ],
      "type": "VEC3"
    },
    {
      "bufferView": 2,
      "byteOffset": 221136,
      "componentType": 5126,
      "count": 1380,
      "max": [
        1.0,
        0.997458815574646,
        1.0
      ],
      "min": [
        -1.0,
        -1.0,
        -1.0
      ],
      "type": "VEC3"
    },
    {
      "bufferView": 1,
      "byteOffset": 68192,
      "componentType": 5126,
      "count": 1380,
      "max": [
        1.0,
        1.0
      ],
      "min": [
        0.0,
        0.01000000536441803
      ],
      "type": "VEC2"
    },
    {
      "bufferView": 0,
      "byteOffset": 172992,
      "componentType": 5125,
      "count": 6900,
      "type": "SCALAR"
    },
    {
      "bufferView": 2,
      "byteOffset": 237696,
      "componentType": 5126,
      "count": 7186,
      "max": [
        1.0398669242858887,
        3.226848602294922,
        1.0398650169372559
      ],
      "min": [
        -1.0398626327514648,
        -1.0000001192092896,
        -1.0398646593093872
      ],
      "type": "VEC3"
    },
    {
      "bufferView": 2,
      "byteOffset": 323928,
      "componentType": 5126,
      "count": 7186,
      "max": [
        1.0,
        1.0,
        1.0
      ],
      "min": [
        -1.0,
        -1.0,
        -1.0
      ],
      "type": "VEC3"
    },
    {
      "bufferView": 1,
      "byteOffset": 79232,
      "componentType": 5126,
      "count": 7186,
      "max": [
        1.0000001192092896,
        1.0000001192092896
      ],
      "min": [
        0.0,
        0.010106472298502922
      ],
      "type": "VEC2"
    },
    {
      "bufferView": 0,
      "byteOffset": 200592,
      "componentType": 5125,
      "count": 38778,
      "type": "SCALAR"
    },
    {
      "bufferView": 2,
      "byteOffset": 410160,
      "componentType": 5126,
      "count": 1979,
      "max": [
        1.0,
        2.2873640060424805,
        1.0
      ],
      "min": [
        -1.0,
        -1.0,
        -1.0
      ],
      "type": "VEC3"
    },
    {
      "bufferView": 2,
      "byteOffset": 433908,
      "componentType": 5126,
      "count": 1979,
      "max": [
        1.0,
        1.0,
        1.0
      ],
      "min": [
        -1.0,
        -1.0,
        -1.0
      ],
      "type": "VEC3"
    },
    {
      "bufferView": 1,
      "byteOffset": 136720,
      "componentType": 5126,
      "count": 1979,
      "max": [
        1.0,
        1.0
      ],
      "min": [
        0.0,
        0.01000000536441803
      ],
      "type": "VEC2"
    },
    {
      "bufferView": 0,
      "byteOffset": 355704,
      "componentType": 5125,
      "count": 9684,
      "type": "SCALAR"
    },
    {
      "bufferView": 2,
      "byteOffset": 457656,
      "componentType": 5126,
      "count": 8995,
      "max": [
        -3.6865200996398926,
        2.3042922019958496,
        0.9857697486877441
      ],
      "min": [
        -5.966886520385742,
        -0.9999999403953552,
        -0.9857697486877441
      ],
      "type": "VEC3"
    },
    {
      "bufferView": 2,
      "byteOffset": 565596,
      "componentType": 5126,
      "count": 8995,
      "max": [
        0.9999622106552124,
        0.9998692274093628,
        0.999940037727356
      ],
      "min": [
        -0.9999997615814209,
        -1.0,
        -0.999940037727356
      ],
      "type": "VEC3"
    },
    {
      "bufferView": 1,
      "byteOffset": 152552,
      "componentType": 5126,
      "count": 8995,
      "max": [
        0.7500001192092896,
        1.000000238418579
      ],
      "min": [
        0.0,
        0.0
      ],
      "type": "VEC2"
    },
    {
      "bufferView": 0,
      "byteOffset": 394440,
      "componentType": 5125,
      "count": 49212,
      "type": "SCALAR"
    }
  ],
  "asset": {
    "extras": {
      "author": "Diccbudd (https://sketchfab.com/Diccbudd)",
      "license": "CC-BY-4.0 (http://creativecommons.org/licenses/by/4.0/)",
      "source": "https://sketchfab.com/3d-models/chess-pieces-b9c16b459dfb4c03b8db2a91e6588bec",
      "title": "Chess pieces"
    },
    "generator": "Sketchfab-12.68.0",
    "version": "2.0"
  },
  "bufferViews": [
    {
      "buffer": 0,
      "byteLength": 591288,
      "name": "floatBufferViews",
      "target": 34963
    },
    {
      "buffer": 0,
      "byteLength": 224512,
      "byteOffset": 591288,
      "byteStride": 8,
      "name": "floatBufferViews",
      "target": 34962
    },
    {
      "buffer": 0,
      "byteLength": 673536,
      "byteOffset": 815800,
      "byteStride": 12,
      "name": "floatBufferViews",
      "target": 34962
    }
  ],
  "buffers": [
    {
      "byteLength": 1489336,
      "uri": "scene.bin"
    }
  ],
  "materials": [
    {
      "doubleSided": true,
      "name": "White",
      "pbrMetallicRoughness": {
        "metallicFactor": 0.0,
        "roughnessFactor": 0.0
      }
    }
  ],
  "meshes": [
    {
      "name": "Object_0",
      "primitives": [
        {
          "attributes": {
            "NORMAL": 1,
            "POSITION": 0,
            "TEXCOORD_0": 2
          },
          "indices": 3,
          "material": 0,
          "mode": 4
        }
      ]
    },
    {
      "name": "Object_1",
      "primitives": [
        {
          "attributes": {
            "NORMAL": 5,
            "POSITION": 4,
            "TEXCOORD_0": 6
          },
          "indices": 7,
          "material": 0,
          "mode": 4
        }
      ]
    },
    {
      "name": "Object_2",
      "primitives": [
        {
          "attributes": {
            "NORMAL": 9,
            "POSITION": 8,
            "TEXCOORD_0": 10
          },
          "indices": 11,
          "material": 0,
          "mode": 4
        }
      ]
    },
    {
      "name": "Object_3",
      "primitives": [
        {
          "attributes": {
            "NORMAL": 13,
            "POSITION": 12,
            "TEXCOORD_0": 14
          },
          "indices": 15,
          "material": 0,
          "mode": 4
        }
      ]
    },
    {
      "name": "Object_4",
      "primitives": [
        {
          "attributes": {
            "NORMAL": 17,
            "POSITION": 16,
            "TEXCOORD_0": 18
          },
          "indices": 19,
          "material": 0,
          "mode": 4
        }
      ]
    },
    {
      "name": "Object_5",
      "primitives": [
        {
          "attributes": {
            "NORMAL": 21,
            "POSITION": 20,
            "TEXCOORD_0": 22
          },
          "indices": 23,
          "material": 0,
          "mode": 4
        }
      ]
    }
  ],
  "nodes": [
    {
      "children": [
        1
      ],
      "matrix": [
        1.0,
        0.0,
        0.0,
        0.0,
        0.0,
        2.220446049250313e-16,
        -1.0,
        0.0,
        0.0,
        1.0,
        2.220446049250313e-16,
        0.0,
        0.0,
        0.0,
        0.0,
        1.0
      ],
      "name": "Sketchfab_model"
    },
    {
      "children": [
        2
      ],
      "name": "root"
    },
    {
      "children": [
        3,
        5,
        7,
        9,
        11,
        13
      ],
      "matrix": [
        1.0,
        0.0,
        0.0,
        0.0,
        0.0,
        2.220446049250313e-16,
        1.0,
        0.0,
        0.0,
        -1.0,
        2.220446049250313e-16,
        0.0,
        0.0,
        0.0,
        0.0,
        1.0
      ],
      "name": "GLTF_SceneRootNode"
    },
    {
      "children": [
        4
      ],
      "matrix": [
        0.8185747265815735,
        0.0,
        0.0,
        0.0,
        0.0,
        0.8185747265815735,
        0.0,
        0.0,
        0.0,
        0.0,
        0.8185747265815735,
        0.0,
        3.6937038898468018,
        0.8092095255851746,
        0.0,
        1.0
      ],
      "name": "bishop_2"
    },
    {
      "mesh": 0,
      "name": "Object_4"
    },
    {
      "children": [
        6
      ],
      "matrix": [
        0.8185747265815735,
        0.0,
        0.0,
        0.0,
        0.0,
        0.8185747265815735,
        0.0,
        0.0,
        0.0,
        0.0,
        0.8185747265815735,
        0.0,
        9.378885269165039,
        0.8092095255851746,
        0.0,
        1.0
      ],
      "name": "king_3"
    },
    {
      "mesh": 1,
      "name": "Object_6"
    },
    {
      "children": [
        8
      ],
      "matrix": [
        0.8337856531143188,
        0.0,
        0.0,
        0.0,
        0.0,
        0.8337856531143188,
        0.0,
        0.0,
        0.0,
        0.0,
        0.8337856531143188,
        0.0,
        0.0,
        0.8204368352890015,
        0.0,
        1.0
      ],
      "name": "pawn_4"
    },
    {
      "mesh": 2,
      "name": "Object_8"
    },
    {
      "children": [
        10
      ],
      "matrix": [
        0.8185747265815735,
        0.0,
        0.0,
        0.0,
        0.0,
        0.8185747265815735,
        0.0,
        0.0,
        0.0,
        0.0,
        0.8185747265815735,
        0.0,
        7.490030288696289,
        0.8092095255851746,
        0.0,
        1.0
      ],
      "name": "queen_5"
    },
    {
      "mesh": 3,
      "name": "Object_10"
    },
    {
      "children": [
        12
      ],
      "matrix": [
        0.8165236711502075,
        0.0,
        0.0,
        0.0,
        0.0,
        0.8165236711502075,
        0.0,
        0.0,
        0.0,
        0.0,
        0.8165236711502075,
        0.0,
        1.8428866863250732,
        0.8109859824180603,
        0.0,
        1.0
      ],
      "name": "rook_6"
    },
    {
      "mesh": 4,
      "name": "Object_12"
    },
    {
      "children": [
        14
      ],
      "matrix": [
        0.8185747265815735,
        0.0,
        0.0,
        0.0,
        0.0,
        0.8185747265815735,
        0.0,
        0.0,
        0.0,
        0.0,
        0.8185747265815735,
        0.0,
        9.378885269165039,
        0.8092095255851746,
        0.0,
        1.0
      ],
      "name": "knight_7"
    },
    {
      "mesh": 5,
      "name": "Object_14"
    }
  ],
  "scene": 0,
  "scenes": [
    {
      "name": "Sketchfab_Scene",
      "nodes": [
        0
      ]
    }
  ]
}
